#
#
#

mtllib Bullet.mtl


#
#  メッシュ
#
g  メッシュ

v 0.000000 0.000000 -0.200000
v 0.000000 0.017578 -0.175000
v 0.012429 0.012430 -0.175000
v 0.000000 0.000000 0.200000
v 0.038670 0.038670 0.200000
v 0.000000 0.054688 0.200000
v 0.000000 0.062500 0.150000
v 0.038670 0.038670 0.200000
v 0.044194 0.044194 0.150000
v 0.017578 0.000000 -0.175000
v 0.054688 0.000000 0.200000
v 0.062500 0.000000 0.150000
v 0.012429 -0.012429 -0.175000
v 0.038670 -0.038670 0.200000
v 0.038670 -0.038670 0.200000
v 0.044194 -0.044194 0.150000
v 0.000000 -0.017578 -0.175000
v 0.000000 -0.054688 0.200000
v 0.000000 -0.054688 0.200000
v 0.000000 -0.062500 0.150000
v -0.012429 -0.012429 -0.175000
v -0.038670 -0.038670 0.200000
v -0.044194 -0.044194 0.150000
v -0.017578 0.000000 -0.175000
v -0.054688 0.000000 0.200000
v -0.038670 -0.038670 0.200000
v -0.062500 0.000000 0.150000
v -0.012429 0.012430 -0.175000
v -0.038670 0.038670 0.200000
v -0.038670 0.038670 0.200000
v -0.044194 0.044194 0.150000
v -0.044194 0.044194 0.000000
v 0.000000 0.047851 -0.100000
v -0.033836 0.033836 -0.100000
v -0.047851 0.000000 -0.100000
v -0.044194 -0.044194 0.000000
v -0.033836 -0.033836 -0.100000
v 0.000000 -0.047851 -0.100000
v 0.044194 -0.044194 0.000000
v 0.033836 -0.033836 -0.100000
v 0.047851 0.000000 -0.100000
v 0.044194 0.044194 0.000000
v 0.033836 0.033836 -0.100000
v 0.000000 0.062500 0.000000
v -0.062500 0.000000 0.000000
v 0.000000 -0.062500 0.000000
v 0.062500 0.000000 0.000000
v 0.000000 0.054688 0.200000
v 0.054688 0.000000 0.200000
v -0.054688 0.000000 0.200000
vn 0.000000 0.000000 -1.000000
vn 0.000000 0.772556 -0.634946
vn 0.546304 0.546304 -0.634905
vn 0.000000 0.000000 1.000000
vn 0.000000 0.992930 0.118704
vn 0.686001 0.686001 0.242500
vn 0.702108 0.702108 0.118701
vn 0.772556 0.000000 -0.634946
vn 0.992930 0.000000 0.118704
vn 0.546304 -0.546304 -0.634905
vn 0.686001 -0.686001 0.242500
vn 0.702108 -0.702108 0.118701
vn 0.000000 -0.772556 -0.634946
vn 0.000000 -0.970148 0.242512
vn 0.000000 -0.992930 0.118704
vn -0.546304 -0.546304 -0.634905
vn -0.702108 -0.702108 0.118701
vn -0.772556 0.000000 -0.634946
vn -0.686001 -0.686001 0.242500
vn -0.992930 0.000000 0.118704
vn -0.546304 0.546304 -0.634905
vn -0.686001 0.686001 0.242500
vn -0.702108 0.702108 0.118701
vn -0.702674 0.702674 -0.111796
vn 0.000000 0.926295 -0.376798
vn -0.654991 0.654991 -0.376795
vn -0.926295 0.000000 -0.376798
vn -0.702674 -0.702674 -0.111796
vn -0.654991 -0.654991 -0.376795
vn 0.000000 -0.926295 -0.376798
vn 0.702674 -0.702674 -0.111796
vn 0.654991 -0.654991 -0.376795
vn 0.926295 0.000000 -0.376798
vn 0.702674 0.702674 -0.111796
vn 0.654991 0.654991 -0.376795
vn 0.000000 0.993730 -0.111803
vn -0.993730 0.000000 -0.111803
vn 0.000000 -0.993730 -0.111803
vn 0.993730 0.000000 -0.111803
vn 0.000000 0.970148 0.242512
vn 0.970148 0.000000 0.242512
vn -0.970148 0.000000 0.242512
vt 0.896721 0.888079
vt 0.857211 0.792693
vt 0.936231 0.792693
vt 0.142532 0.859587
vt 0.268488 0.911760
vt 0.194705 0.985543
vt 0.500000 0.097306
vt 0.375000 0.002063
vt 0.375000 0.097306
vt 0.992107 0.848569
vt 0.268488 0.807414
vt 0.250000 0.097306
vt 0.992107 0.927589
vt 0.194705 0.733630
vt 0.125000 0.002063
vt 0.125000 0.097306
vt 0.936231 0.983464
vt 0.090359 0.733630
vt 0.000000 0.002063
vt 0.000000 0.097306
vt 0.857211 0.983464
vt 0.016575 0.807414
vt 1.000000 0.002063
vt 0.875000 0.097306
vt 1.000000 0.097306
vt 0.801336 0.927589
vt 0.016575 0.911759
vt 0.875000 0.002063
vt 0.750000 0.097306
vt 0.801336 0.848569
vt 0.090359 0.985543
vt 0.625000 0.002063
vt 0.625000 0.097306
vt 0.625000 0.383034
vt 0.500000 0.573519
vt 0.625000 0.573519
vt 0.750000 0.573519
vt 0.875000 0.383034
vt 0.875000 0.573519
vt 1.000000 0.573519
vt 0.125000 0.383034
vt 0.000000 0.573519
vt 0.125000 0.573519
vt 0.250000 0.573519
vt 0.375000 0.383034
vt 0.375000 0.573519
vt 0.500000 0.383034
vt 0.750000 0.383034
vt 1.000000 0.383034
vt 0.000000 0.383034
vt 0.250000 0.383034
vt 0.375000 0.716383
vt 0.500000 0.716383
vt 0.250000 0.716383
vt 0.125000 0.716383
vt 0.000000 0.716383
vt 1.000000 0.716383
vt 0.875000 0.716383
vt 0.750000 0.716383
vt 0.625000 0.716383
vt 0.500000 0.002063
vt 0.250000 0.002063
vt 0.750000 0.002063
f 1/1/1 2/2/2 3/3/3
f 4/4/4 5/5/4 6/6/4
f 7/7/5 8/8/6 9/9/7
f 1/1/1 3/3/3 10/10/8
f 4/4/4 11/11/4 5/5/4
f 8/8/6 12/12/9 9/9/7
f 1/1/1 10/10/8 13/13/10
f 4/4/4 14/14/4 11/11/4
f 12/12/9 15/15/11 16/16/12
f 1/1/1 13/13/10 17/17/13
f 4/4/4 18/18/4 14/14/4
f 16/16/12 19/19/14 20/20/15
f 1/1/1 17/17/13 21/21/16
f 4/4/4 22/22/4 18/18/4
f 19/23/14 23/24/17 20/25/15
f 1/1/1 21/21/16 24/26/18
f 4/4/4 25/27/4 22/22/4
f 26/28/19 27/29/20 23/24/17
f 1/1/1 24/26/18 28/30/21
f 4/4/4 29/31/4 25/27/4
f 27/29/20 30/32/22 31/33/23
f 1/1/1 28/30/21 2/2/2
f 4/4/4 6/6/4 29/31/4
f 30/32/22 7/7/5 31/33/23
f 32/34/24 33/35/25 34/36/26
f 35/37/27 32/34/24 34/36/26
f 36/38/28 35/37/27 37/39/29
f 38/40/30 36/38/28 37/39/29
f 39/41/31 38/42/30 40/43/32
f 41/44/33 39/41/31 40/43/32
f 42/45/34 41/44/33 43/46/35
f 44/47/36 43/46/35 33/35/25
f 31/33/23 44/47/36 32/34/24
f 27/29/20 32/34/24 45/48/37
f 23/24/17 45/48/37 36/38/28
f 20/25/15 36/38/28 46/49/38
f 16/16/12 46/50/38 39/41/31
f 47/51/39 16/16/12 39/41/31
f 9/9/7 47/51/39 42/45/34
f 44/47/36 9/9/7 42/45/34
f 33/35/25 3/52/3 2/53/2
f 43/46/35 10/54/8 3/52/3
f 41/44/33 13/55/10 10/54/8
f 40/43/32 17/56/13 13/55/10
f 17/57/13 37/39/29 21/58/16
f 21/58/16 35/37/27 24/59/18
f 35/37/27 28/60/21 24/59/18
f 34/36/26 2/53/2 28/60/21
f 7/7/5 48/61/40 8/8/6
f 8/8/6 49/62/41 12/12/9
f 12/12/9 49/62/41 15/15/11
f 16/16/12 15/15/11 19/19/14
f 19/23/14 26/28/19 23/24/17
f 26/28/19 50/63/42 27/29/20
f 27/29/20 50/63/42 30/32/22
f 30/32/22 48/61/40 7/7/5
f 32/34/24 44/47/36 33/35/25
f 35/37/27 45/48/37 32/34/24
f 36/38/28 45/48/37 35/37/27
f 38/40/30 46/49/38 36/38/28
f 39/41/31 46/50/38 38/42/30
f 41/44/33 47/51/39 39/41/31
f 42/45/34 47/51/39 41/44/33
f 44/47/36 42/45/34 43/46/35
f 31/33/23 7/7/5 44/47/36
f 27/29/20 31/33/23 32/34/24
f 23/24/17 27/29/20 45/48/37
f 20/25/15 23/24/17 36/38/28
f 16/16/12 20/20/15 46/50/38
f 47/51/39 12/12/9 16/16/12
f 9/9/7 12/12/9 47/51/39
f 44/47/36 7/7/5 9/9/7
f 33/35/25 43/46/35 3/52/3
f 43/46/35 41/44/33 10/54/8
f 41/44/33 40/43/32 13/55/10
f 40/43/32 38/42/30 17/56/13
f 17/57/13 38/40/30 37/39/29
f 21/58/16 37/39/29 35/37/27
f 35/37/27 34/36/26 28/60/21
f 34/36/26 33/35/25 2/53/2
